<svg width="74" height="57" viewBox="0 0 74 57" fill="none" xmlns="http://www.w3.org/2000/svg">
<path d="M36.0424 10.1235C36.328 9.17433 37.672 9.17432 37.9576 10.1235L39.5341 15.3628C40.1816 17.5145 42.1849 18.97 44.4314 18.9209L49.9015 18.8012C50.8924 18.7795 51.3077 20.0577 50.4933 20.6226L45.9976 23.741C44.1512 25.0217 43.386 27.3768 44.127 29.4982L45.9311 34.6635C46.258 35.5992 45.1707 36.3892 44.3817 35.7892L40.0267 32.4772C38.2381 31.1169 35.7619 31.1169 33.9733 32.4772L35.184 34.0691L33.9733 32.4772L29.6183 35.7892C28.8293 36.3892 27.742 35.5992 28.0689 34.6635L29.873 29.4982C30.614 27.3768 29.8488 25.0217 28.0024 23.741L23.5067 20.6226C22.6923 20.0577 23.1076 18.7795 24.0985 18.8012L29.5686 18.9209C31.8151 18.97 33.8184 17.5145 34.4659 15.3628L36.0424 10.1235Z" stroke="#DDDDDD" stroke-width="4"/>
<path d="M30.3328 49.4977C29.6385 50.7002 28.5206 51.9207 27.3058 52.6241C26.1126 53.3152 25.0368 53.4112 24.0942 52.867C23.1516 52.3228 22.6969 51.3431 22.6987 49.9642C22.7006 48.5605 23.1986 46.9821 23.8929 45.7796C24.5905 44.5713 25.795 43.207 27.1152 42.3715C28.4492 41.5273 29.5566 41.4088 30.4213 41.9081C31.2861 42.4074 31.7372 43.4256 31.6731 45.003C31.6096 46.5641 31.0304 48.2894 30.3328 49.4977Z" stroke="#DDDDDD" stroke-width="3"/>
<path d="M10.6587 37.5669C9.40657 38.1672 7.79467 38.543 6.39493 38.4374C5.01993 38.3337 4.0779 37.8054 3.60742 36.824C3.13693 35.8425 3.31501 34.7772 4.09529 33.6403C4.88961 32.483 6.19207 31.4617 7.44419 30.8614C8.70231 30.2583 10.4669 29.8128 12.0283 29.8689C13.6059 29.9257 14.5866 30.4533 15.0183 31.3538C15.45 32.2542 15.2471 33.3493 14.3033 34.6148C13.3693 35.8672 11.9168 36.9638 10.6587 37.5669Z" stroke="#DDDDDD" stroke-width="3"/>
<path d="M66.1822 30.4503C67.4344 31.0505 68.7369 32.0717 69.5312 33.229C70.3115 34.3659 70.4897 35.4312 70.0192 36.4126C69.5488 37.3941 68.6068 37.9225 67.2318 38.0262C65.832 38.1318 64.2201 37.7561 62.968 37.1559C61.7098 36.5528 60.2573 35.4563 59.3232 34.2039C58.3794 32.9385 58.1765 31.8434 58.6081 30.9429C59.0397 30.0424 60.0205 29.5147 61.5981 29.4579C63.1595 29.4017 64.9241 29.8472 66.1822 30.4503Z" stroke="#DDDDDD" stroke-width="3"/>
<path d="M51.3737 45.5615C52.0679 46.764 52.566 48.3424 52.5678 49.7461C52.5696 51.125 52.1149 52.1047 51.1723 52.6489C50.2297 53.1931 49.154 53.0971 47.9607 52.406C46.746 51.7026 45.628 50.4821 44.9337 49.2796C44.2361 48.0713 43.6569 46.346 43.5934 44.7849C43.5293 43.2075 43.9804 42.1893 44.8452 41.69C45.71 41.1907 46.8174 41.3092 48.1513 42.1534C49.4715 42.9889 50.6761 44.3532 51.3737 45.5615Z" stroke="#DDDDDD" stroke-width="3"/>
</svg>
