<svg width="78" height="68" viewBox="0 0 78 68" fill="none" xmlns="http://www.w3.org/2000/svg">
<path d="M38.0424 18.1235C38.328 17.1743 39.672 17.1743 39.9576 18.1235L41.5341 23.3628C42.1816 25.5145 44.1849 26.97 46.4314 26.9209L51.9015 26.8012C52.8924 26.7795 53.3077 28.0577 52.4933 28.6226L47.9976 31.741C46.1512 33.0217 45.386 35.3768 46.127 37.4982L47.9311 42.6635C48.258 43.5992 47.1707 44.3892 46.3817 43.7892L42.0267 40.4772C40.2381 39.1169 37.7619 39.1169 35.9733 40.4772L37.184 42.0691L35.9733 40.4772L31.6183 43.7892C30.8293 44.3892 29.742 43.5992 30.0689 42.6635L31.873 37.4982C32.614 35.3768 31.8488 33.0217 30.0024 31.741L25.5067 28.6226C24.6923 28.0577 25.1076 26.7795 26.0985 26.8012L31.5686 26.9209C33.8151 26.97 35.8184 25.5145 36.4659 23.3628L38.0424 18.1235Z" stroke="#FF8B66" stroke-width="4"/>
<path d="M33.3328 60.4977C32.6385 61.7002 31.5206 62.9207 30.3058 63.6241C29.1126 64.3152 28.0368 64.4112 27.0942 63.867C26.1516 63.3228 25.6969 62.3431 25.6987 60.9642C25.7006 59.5605 26.1986 57.9821 26.8929 56.7796C27.5905 55.5713 28.795 54.207 30.1152 53.3715C31.4492 52.5273 32.5566 52.4088 33.4213 52.9081C34.2861 53.4074 34.7372 54.4256 34.6731 56.003C34.6096 57.5641 34.0304 59.2894 33.3328 60.4977Z" stroke="#FF8B66" stroke-opacity="0.5" stroke-width="3"/>
<path d="M13.6587 48.5669C12.4066 49.1672 10.7947 49.543 9.39493 49.4374C8.01993 49.3337 7.0779 48.8054 6.60742 47.824C6.13693 46.8425 6.31501 45.7772 7.09529 44.6403C7.88961 43.483 9.19207 42.4617 10.4442 41.8614C11.7023 41.2583 13.4669 40.8128 15.0283 40.8689C16.6059 40.9257 17.5866 41.4533 18.0183 42.3538C18.45 43.2542 18.2471 44.3493 17.3033 45.6148C16.3693 46.8672 14.9168 47.9638 13.6587 48.5669Z" stroke="#FF8B66" stroke-opacity="0.5" stroke-width="3"/>
<path d="M11.9452 26.7478C12.7202 27.9 13.3251 29.4406 13.423 30.8409C13.5192 32.2164 13.1326 33.2249 12.2295 33.8324C11.3264 34.4398 10.2466 34.4177 9.00881 33.81C7.74877 33.1913 6.54988 32.0502 5.7749 30.898C4.99621 29.7403 4.3002 28.0587 4.13001 26.5056C3.95805 24.9364 4.33837 23.8897 5.16695 23.3323C5.99553 22.775 7.10844 22.8174 8.49704 23.5683C9.87136 24.3114 11.1665 25.5901 11.9452 26.7478Z" stroke="#FF8B66" stroke-opacity="0.5" stroke-width="3"/>
<path d="M24.3979 8.57765C24.4796 9.96382 24.2173 11.598 23.5897 12.8537C22.9733 14.0871 22.1277 14.7591 21.0412 14.823C19.9547 14.887 19.0361 14.319 18.2791 13.1664C17.5085 11.9931 17.0562 10.401 16.9746 9.01481C16.8926 7.62202 17.1481 5.82009 17.7911 4.39614C18.4408 2.9574 19.3004 2.24934 20.2973 2.19064C21.2941 2.13193 22.2309 2.7342 23.045 4.08674C23.8506 5.42537 24.3159 7.18486 24.3979 8.57765Z" stroke="#FF8B66" stroke-opacity="0.5" stroke-width="3"/>
<path d="M60.3635 8.6283C60.2819 10.0145 59.8296 11.6066 59.059 12.7799C58.3021 13.9325 57.3835 14.5005 56.297 14.4365C55.2104 14.3726 54.3649 13.7006 53.7484 12.4672C53.1209 11.2116 52.8586 9.57734 52.9402 8.19118C53.0222 6.79838 53.4874 5.03889 54.2931 3.70026C55.1072 2.34771 56.044 1.74545 57.0408 1.80414C58.0377 1.86284 58.8973 2.5709 59.547 4.00963C60.19 5.43358 60.4455 7.23551 60.3635 8.6283Z" stroke="#FF8B66" stroke-opacity="0.5" stroke-width="3"/>
<path d="M71.6221 30.7229C70.847 31.875 69.648 33.016 68.3879 33.6345C67.1501 34.2421 66.0703 34.2642 65.1672 33.6567C64.2641 33.0492 63.8777 32.0407 63.974 30.6651C64.072 29.2648 64.677 27.7243 65.4521 26.5721C66.2309 25.4145 67.5261 24.136 68.9005 23.3929C70.2891 22.6421 71.402 22.5998 72.2306 23.1572C73.0591 23.7146 73.4394 24.7614 73.2673 26.3306C73.097 27.8837 72.4008 29.5652 71.6221 30.7229Z" stroke="#FF8B66" stroke-opacity="0.5" stroke-width="3"/>
<path d="M69.1822 41.4503C70.4344 42.0505 71.7369 43.0717 72.5312 44.229C73.3115 45.3659 73.4897 46.4312 73.0192 47.4126C72.5488 48.3941 71.6068 48.9225 70.2318 49.0262C68.832 49.1318 67.2201 48.7561 65.968 48.1559C64.7098 47.5528 63.2573 46.4563 62.3232 45.2039C61.3794 43.9385 61.1765 42.8434 61.6081 41.9429C62.0397 41.0424 63.0205 40.5147 64.5981 40.4579C66.1595 40.4017 67.9241 40.8472 69.1822 41.4503Z" stroke="#FF8B66" stroke-opacity="0.5" stroke-width="3"/>
<path d="M54.3737 56.5615C55.0679 57.764 55.566 59.3424 55.5678 60.7461C55.5696 62.125 55.1149 63.1047 54.1723 63.6489C53.2297 64.1931 52.154 64.0971 50.9607 63.406C49.746 62.7026 48.628 61.4821 47.9337 60.2796C47.2361 59.0713 46.6569 57.346 46.5934 55.7849C46.5293 54.2075 46.9804 53.1893 47.8452 52.69C48.71 52.1907 49.8174 52.3092 51.1513 53.1534C52.4715 53.9889 53.6761 55.3532 54.3737 56.5615Z" stroke="#FF8B66" stroke-opacity="0.5" stroke-width="3"/>
</svg>
