<svg width="16" height="16" viewBox="0 0 16 16" fill="none" xmlns="http://www.w3.org/2000/svg">
<circle cx="8" cy="8" r="8" fill="#F8F5E6"/>
<path d="M13.7996 6.59633L12.3862 6.36533C12.3035 6.08172 12.1903 5.80911 12.0488 5.55109L12.8738 4.37528C12.9406 4.28035 12.9291 4.15098 12.8471 4.06872L11.917 3.13922C11.834 3.05648 11.7034 3.04572 11.6082 3.11435L10.45 3.94676C10.1896 3.8028 9.91458 3.6885 9.62927 3.60552L9.38271 2.198C9.36262 2.0837 9.26337 2 9.14714 2H7.83181C7.71463 2 7.61466 2.08489 7.59577 2.20063L7.36714 3.6005C7.08016 3.683 6.80466 3.79611 6.54518 3.93815L5.39008 3.11315C5.29466 3.045 5.1648 3.056 5.08181 3.1385L4.15223 4.068C4.0702 4.15002 4.05872 4.27915 4.12545 4.37409L4.93832 5.53698C4.79363 5.79883 4.67836 6.07598 4.59442 6.36437L3.19993 6.59657C3.08466 6.6157 3 6.71565 3 6.83235V8.14757C3 8.26354 3.08322 8.36278 3.1973 8.38311L4.59179 8.63037C4.67525 8.91804 4.79053 9.1952 4.93569 9.45776L4.11277 10.6087C4.04485 10.7036 4.05561 10.834 4.13812 10.9169L5.06794 11.8474C5.14997 11.9294 5.27935 11.9409 5.37429 11.8742L6.53896 11.0585C6.80035 11.2022 7.07657 11.3163 7.36284 11.399L7.59625 12.8006C7.61514 12.9156 7.71487 13 7.83181 13H9.14714C9.26313 13 9.36238 12.9168 9.38247 12.8027L9.63238 11.3942C9.91912 11.3098 10.1939 11.195 10.4527 11.0511L11.6257 11.8739C11.7209 11.9411 11.85 11.9294 11.9323 11.8474L12.8621 10.9169C12.9449 10.834 12.9556 10.7032 12.887 10.608L12.0504 9.44652C12.1923 9.18826 12.3049 8.91517 12.3869 8.63157L13.8022 8.38311C13.9168 8.36302 14 8.26354 14 8.14757V6.83235C14.0002 6.71517 13.9153 6.61522 13.7996 6.59633ZM8.5 9.17391C7.57544 9.17391 6.82594 8.42448 6.82594 7.5C6.82594 6.57552 7.57544 5.82609 8.5 5.82609C9.42456 5.82609 10.1741 6.57552 10.1741 7.5C10.1741 8.42448 9.42456 9.17391 8.5 9.17391Z" fill="black"/>
</svg>
