<svg width="112" height="93" viewBox="0 0 112 93" fill="none" xmlns="http://www.w3.org/2000/svg">
<path d="M11.5556 0C5.15556 0 0 5.18654 0 11.625V81.375C0 87.8135 5.15556 93 11.5556 93H100.444C106.844 93 112 87.8135 112 81.375V66.7093C112 65.1891 110.844 64.0266 109.333 64.0266C107.822 64.0266 106.667 65.1891 106.667 66.7093V81.375C106.667 84.8625 103.911 87.6346 100.444 87.6346H32.8889C43.0222 55.9788 69.2448 43.4596 108.8 51.4183C108.978 51.4183 109.156 51.5073 109.333 51.5073C110.844 51.5073 112 50.3448 112 48.8246V11.625C112 5.18654 106.844 0 100.444 0H11.5556ZM11.5556 5.36538H100.444C103.911 5.36538 106.667 8.1375 106.667 11.625V45.5167C65.6889 38.2734 37.6896 53.1173 27.3785 87.6346H11.5556C8.08889 87.6346 5.33333 84.8625 5.33333 81.375V11.625C5.33333 8.1375 8.08889 5.36538 11.5556 5.36538ZM31.1111 16.0962C27.1111 16.0962 23.2889 17.7058 20.4444 20.5673C14.5778 26.4692 14.5778 36.1266 20.4444 42.1179C23.2889 44.9795 27.1111 46.5891 31.1111 46.5891C35.1111 46.5891 38.9333 44.9795 41.7778 42.1179C47.6444 36.216 47.6444 26.5587 41.7778 20.5673C38.9333 17.7058 35.1111 16.0962 31.1111 16.0962ZM31.1111 21.4615C33.7778 21.4615 36.1785 22.4445 38.0451 24.3224C41.8674 28.1676 41.8674 34.4286 38.0451 38.2738C36.1785 40.1517 33.6889 41.1346 31.1111 41.1346C28.5333 41.1346 26.0438 40.1517 24.1771 38.2738C20.3549 34.4286 20.3549 28.1676 24.1771 24.3224C26.0438 22.4445 28.4444 21.4615 31.1111 21.4615Z" fill="#5B5B5B"/>
</svg>
