<svg width="152" height="59" viewBox="0 0 152 59" fill="none" xmlns="http://www.w3.org/2000/svg">
<path d="M2.79151 32.29C1.41561 32.4051 0.393562 33.6139 0.508709 34.9898C0.623856 36.3657 1.83259 37.3877 3.20849 37.2726L2.79151 32.29ZM150.959 40.1863C151.817 39.1041 151.635 37.5317 150.553 36.6742L132.918 22.7006C131.836 21.8431 130.263 22.0253 129.406 23.1074C128.548 24.1896 128.73 25.762 129.813 26.6195L145.488 39.0404L133.067 54.7159C132.209 55.7981 132.392 57.3705 133.474 58.2279C134.556 59.0854 136.128 58.9033 136.986 57.8211L150.959 40.1863ZM3.20849 37.2726C8.31766 36.845 12.2876 34.2653 15.4162 30.9113C18.5097 27.5948 20.8931 23.4046 22.8798 19.4774C24.9486 15.3882 26.4878 11.8181 28.124 9.02702C28.9214 7.66687 29.622 6.71445 30.2474 6.12349C30.8572 5.54732 31.1932 5.5 31.327 5.5V0.5C29.469 0.5 27.9655 1.4007 26.8135 2.48921C25.6771 3.56293 24.6937 4.99184 23.8106 6.49832C22.0857 9.44057 20.2777 13.5449 18.4183 17.2204C16.4768 21.058 14.3511 24.7228 11.7599 27.5007C9.20371 30.2411 6.31322 31.9952 2.79151 32.29L3.20849 37.2726ZM31.327 5.5C33.8873 5.5 35.9075 6.82494 37.8039 9.43525C39.7535 12.1188 41.2948 15.7935 42.8902 19.8129C44.4247 23.6789 46.0294 27.9261 48.0746 31.1536C50.1317 34.4001 53.0583 37.2813 57.4409 37.2813V32.2813C55.6271 32.2813 54.0169 31.1899 52.298 28.4773C50.5672 25.7459 49.1567 22.0477 47.5375 17.9684C45.9793 14.0425 44.2287 9.77188 41.849 6.49641C39.4162 3.14773 36.0698 0.5 31.327 0.5V5.5ZM57.4409 37.2813C61.3788 37.2813 64.2994 35.5512 66.6321 33.2473C68.8543 31.0526 70.7353 28.1242 72.4913 25.6134C76.1503 20.3813 79.8093 16.0799 87.0958 16.0799V11.0799C77.1204 11.0799 72.1485 17.3791 68.3939 22.7478C66.443 25.5373 64.9214 27.9093 63.1186 29.6899C61.4264 31.3612 59.6996 32.2813 57.4409 32.2813V37.2813ZM87.0958 16.0799C89.7164 16.0799 92.6362 17.4723 96.3909 20.0964C98.2299 21.3816 100.159 22.8793 102.273 24.5188C104.37 26.145 106.629 27.8953 109.056 29.6186C118.814 36.5509 131.459 43.1822 149.288 41.117L148.712 36.1502C132.613 38.0151 121.21 32.1195 111.951 25.5424C109.623 23.8884 107.442 22.2 105.337 20.5677C103.25 18.9488 101.216 17.3686 99.2551 15.998C95.4094 13.3104 91.3798 11.0799 87.0958 11.0799V16.0799Z" fill="black"/>
</svg>
