<svg width="112" height="40" viewBox="0 0 112 40" fill="none" xmlns="http://www.w3.org/2000/svg">
<path d="M0.878603 31.0374C0.148067 32.209 0.505632 33.751 1.67725 34.4815C2.84886 35.2121 4.39086 34.8545 5.1214 33.6829L0.878603 31.0374ZM105.063 39.3334C106.423 39.5746 107.72 38.6681 107.962 37.3086L111.893 15.1547C112.134 13.7952 111.227 12.4976 109.868 12.2563C108.508 12.0151 107.211 12.9216 106.97 14.2811L103.475 33.9735L83.7829 30.4792C82.4234 30.238 81.1257 31.1445 80.8845 32.504C80.6433 33.8635 81.5498 35.1611 82.9093 35.4023L105.063 39.3334ZM5.1214 33.6829C17.9631 13.0877 35.52 4.42562 53.1455 5.60595C70.886 6.79398 89.2617 17.993 103.451 38.3035L107.549 35.4401C92.7383 14.2388 73.114 1.93198 53.4795 0.617122C33.73 -0.705446 14.5369 9.13255 0.878603 31.0374L5.1214 33.6829Z" fill="black"/>
</svg>
