<svg width="13" height="13" viewBox="0 0 13 13" fill="none" xmlns="http://www.w3.org/2000/svg">
<path d="M10.608 0C9.9938 0 9.37971 0.232827 8.9143 0.698445L1.33964 8.2724C1.19593 8.41612 1.09067 8.59484 1.03487 8.79105L0.0196104 12.3461C-0.00542777 12.4341 -0.00650925 12.5271 0.0164779 12.6157C0.0394651 12.7042 0.0856861 12.785 0.15036 12.8496C0.215034 12.9143 0.295812 12.9605 0.384339 12.9835C0.472866 13.0065 0.565926 13.0054 0.653895 12.9804L4.20963 11.9651L4.2103 11.9645C4.4052 11.9084 4.58349 11.8045 4.72762 11.6604L12.3016 4.08574C13.2328 3.15456 13.2328 1.62963 12.3016 0.698445C11.8362 0.232827 11.2221 0 10.608 0ZM10.608 1.0206C10.9573 1.0206 11.3061 1.1552 11.5751 1.42429H11.5758C12.1147 1.96322 12.1147 2.82096 11.5758 3.35989L10.9121 4.02358L8.97646 2.08798L9.64015 1.42429C9.90913 1.1552 10.2586 1.0206 10.608 1.0206ZM8.25061 2.81383L10.1862 4.74943L4.0011 10.9345C3.98104 10.9544 3.95563 10.9697 3.92691 10.978L1.26011 11.7399L2.02205 9.07244V9.07177C2.0299 9.04418 2.04427 9.01947 2.0655 8.99825L8.25061 2.81383Z" fill="#004491"/>
</svg>
