<svg width="78" height="60" viewBox="0 0 78 60" fill="none" xmlns="http://www.w3.org/2000/svg">
<path d="M39.0424 10.1235C39.328 9.17433 40.672 9.17432 40.9576 10.1235L42.5341 15.3628C43.1816 17.5145 45.1849 18.97 47.4314 18.9209L52.9015 18.8012C53.8924 18.7795 54.3077 20.0577 53.4933 20.6226L48.9976 23.741C47.1512 25.0217 46.386 27.3768 47.127 29.4982L48.9311 34.6635C49.258 35.5992 48.1707 36.3892 47.3817 35.7892L43.0267 32.4772C41.2381 31.1169 38.7619 31.1169 36.9733 32.4772L38.184 34.0691L36.9733 32.4772L32.6183 35.7892C31.8293 36.3892 30.742 35.5992 31.0689 34.6635L32.873 29.4982C33.614 27.3768 32.8488 25.0217 31.0024 23.741L26.5067 20.6226C25.6923 20.0577 26.1076 18.7795 27.0985 18.8012L32.5686 18.9209C34.8151 18.97 36.8184 17.5145 37.4659 15.3628L39.0424 10.1235Z" stroke="#DDDDDD" stroke-width="4"/>
<path d="M33.3328 52.4977C32.6385 53.7002 31.5206 54.9207 30.3058 55.6241C29.1126 56.3152 28.0368 56.4112 27.0942 55.867C26.1516 55.3228 25.6969 54.3431 25.6987 52.9642C25.7006 51.5605 26.1986 49.9821 26.8929 48.7796C27.5905 47.5713 28.795 46.207 30.1152 45.3715C31.4492 44.5273 32.5566 44.4088 33.4213 44.9081C34.2861 45.4074 34.7372 46.4256 34.6731 48.003C34.6096 49.5641 34.0304 51.2894 33.3328 52.4977Z" stroke="#DDDDDD" stroke-width="3"/>
<path d="M13.6587 40.5669C12.4066 41.1672 10.7947 41.543 9.39493 41.4374C8.01993 41.3337 7.0779 40.8054 6.60742 39.824C6.13693 38.8425 6.31501 37.7772 7.09529 36.6403C7.88961 35.483 9.19207 34.4617 10.4442 33.8614C11.7023 33.2583 13.4669 32.8128 15.0283 32.8689C16.6059 32.9257 17.5866 33.4533 18.0183 34.3538C18.45 35.2542 18.2471 36.3493 17.3033 37.6148C16.3693 38.8672 14.9168 39.9638 13.6587 40.5669Z" stroke="#DDDDDD" stroke-width="3"/>
<path d="M11.9452 15.7478C12.7202 16.9 13.3251 18.4406 13.423 19.8409C13.5192 21.2164 13.1326 22.2249 12.2295 22.8324C11.3264 23.4398 10.2466 23.4177 9.00881 22.81C7.74877 22.1913 6.54988 21.0502 5.7749 19.898C4.99621 18.7403 4.3002 17.0587 4.13001 15.5056C3.95805 13.9364 4.33837 12.8897 5.16695 12.3323C5.99553 11.775 7.10844 11.8174 8.49704 12.5683C9.87136 13.3114 11.1665 14.5901 11.9452 15.7478Z" stroke="#DDDDDD" stroke-width="3"/>
<path d="M71.6221 19.7229C70.847 20.875 69.648 22.016 68.3879 22.6345C67.1501 23.2421 66.0703 23.2642 65.1672 22.6567C64.2641 22.0492 63.8777 21.0407 63.974 19.6651C64.072 18.2648 64.677 16.7243 65.4521 15.5721C66.2309 14.4145 67.5261 13.136 68.9005 12.3929C70.2891 11.6421 71.402 11.5998 72.2306 12.1572C73.0591 12.7146 73.4394 13.7614 73.2673 15.3306C73.097 16.8837 72.4008 18.5652 71.6221 19.7229Z" stroke="#DDDDDD" stroke-width="3"/>
<path d="M69.1822 33.4503C70.4344 34.0505 71.7369 35.0717 72.5312 36.229C73.3115 37.3659 73.4897 38.4312 73.0192 39.4126C72.5488 40.3941 71.6068 40.9225 70.2318 41.0262C68.832 41.1318 67.2201 40.7561 65.968 40.1559C64.7098 39.5528 63.2573 38.4563 62.3232 37.2039C61.3794 35.9385 61.1765 34.8434 61.6081 33.9429C62.0397 33.0424 63.0205 32.5147 64.5981 32.4579C66.1595 32.4017 67.9241 32.8472 69.1822 33.4503Z" stroke="#DDDDDD" stroke-width="3"/>
<path d="M54.3737 48.5615C55.0679 49.764 55.566 51.3424 55.5678 52.7461C55.5696 54.125 55.1149 55.1047 54.1723 55.6489C53.2297 56.1931 52.154 56.0971 50.9607 55.406C49.746 54.7026 48.628 53.4821 47.9337 52.2796C47.2361 51.0713 46.6569 49.346 46.5934 47.7849C46.5293 46.2075 46.9804 45.1893 47.8452 44.69C48.71 44.1907 49.8174 44.3092 51.1513 45.1534C52.4715 45.9889 53.6761 47.3532 54.3737 48.5615Z" stroke="#DDDDDD" stroke-width="3"/>
</svg>
